# xmcd
#
# Track frame offsets: 
#        150
#        22042
#        51430
#        71750
#        91745
#        115057
#        139850
#        159775
#        182032
#        203397
#        227775
#        248517
#        268587
#
# Disc length: 3846 seconds
#
# Revision: 4
# Processed by: cddbd v1.5.2PL0 Copyright (c) Steve Scherf et al.
# Submitted via: ExactAudioCopyFreeDBPlugin 1.0
#
DISCID=a70f040d
DTITLE=Gerald Levert - Love and Consequences
DYEAR=1996
DGENRE=R&B
TTITLE0=No Sense (Featuring Lazy Bone and Ken Dawg
TTITLE1=Thinkin' Bout It
TTITLE2=Point The Finger (Featuring Sean Levert)
TTITLE3=Breaking My Heart
TTITLE4=That's The Way I Feel About You (Featuring Mary J. Blige)
TTITLE5=It's Your Turn
TTITLE6=No I'm The Blame
TTITLE7=No Man 's Land
TTITLE8=Men Like Us
TTITLE9=Taking Everything
TTITLE10=What About Me
TTITLE11=Definition Of A Man
TTITLE12=Humble Me (Featuring Lemicah Levert)
EXTD=
EXTT0=
EXTT1=
EXTT2=
EXTT3=
EXTT4=
EXTT5=
EXTT6=
EXTT7=
EXTT8=
EXTT9=
EXTT10=
EXTT11=
EXTT12=
PLAYORDER=
